<mxfile host="app.diagrams.net" modified="2024-07-23T12:15:28.102Z" agent="Mozilla/5.0 (Windows NT 10.0; Win64; x64) AppleWebKit/537.36 (KHTML, like Gecko) Chrome/126.0.0.0 Safari/537.36 Edg/126.0.0.0" version="24.7.3" etag="JgyWYQUU18MRX5xIZI8N" type="github">
  <diagram name="Page-1" id="kR3HScJDv2qbBVlfLI4P">
    <mxGraphModel>
      <root>
        <mxCell id="0" />
        <mxCell id="1" parent="0" />
      </root>
    </mxGraphModel>
  </diagram>
</mxfile>
